# xmcd
#
# Track frame offsets: 
#        150
#        22096
#        34699
#        53257
#        72012
#        95987
#        111266
#        132306
#        147750
#        161844
#
# Disc length: 2554 seconds
#
# Revision: 9
# Processed by: cddbd v1.5.2PL0 Copyright (c) Steve Scherf et al.
# Submitted via: ExactAudioCopy v1.0b3
#
DISCID=8909f80a
DTITLE=Slayer - Seasons InThe Abyss
DYEAR=1990
DGENRE=Thrash Metal
TTITLE0=War Ensemble
TTITLE1=Blood Red
TTITLE2=Spirit In Black
TTITLE3=Expendable Youth
TTITLE4=Dead Skin Mask
TTITLE5=Hallowed Point
TTITLE6=Skeletons Of Society
TTITLE7=Temptation
TTITLE8=Born Of Fire
TTITLE9=Seasons In The Abyss
EXTD=
EXTT0=
EXTT1=
EXTT2=
EXTT3=
EXTT4=
EXTT5=
EXTT6=
EXTT7=
EXTT8=
EXTT9=
PLAYORDER=
